<svg xmlns="http://www.w3.org/2000/svg" viewBox="0 0 2975.02 1835.33"><defs><style>.cls-1{fill:#d6e0ff;}.cls-2{fill:#c9d7ff;}.cls-3{fill:#bfd0ff;}.cls-4{fill:#95a6db;}.cls-5{fill:#e3eaff;}.cls-6{fill:#e62552;}.cls-7{fill:#c4204a;}.cls-8{fill:#062440;}.cls-9{fill:#b8c6f2;}.cls-10{fill:#98b0f2;}.cls-11{fill:#f37a50;}.cls-12{fill:#2c2858;}.cls-13{fill:#80bc48;}.cls-14{fill:#fff;}.cls-15{fill:#de623c;}.cls-16{fill:#201d40;}.cls-17{fill:#2e2a5c;}.cls-18{fill:#373178;}.cls-19{fill:#5e8adb;}.cls-20{fill:#17962e;}</style></defs><g id="Camada_2" data-name="Camada 2"><g id="Слой_1" data-name="Слой 1"><rect class="cls-1" x="1547.61" y="779.49" width="251.6" height="1024.61"/><rect class="cls-2" x="1398.94" y="639.06" width="278.22" height="1165.05"/><rect class="cls-2" x="1432.69" y="573.44" width="210.71" height="69.7"/><rect class="cls-2" x="1475.13" y="504.19" width="125.84" height="69.7"/><rect class="cls-1" x="976.17" y="614.67" width="431.65" height="1189.43"/><rect class="cls-1" x="2114.83" y="525.92" width="333.11" height="1217.94"/><rect class="cls-1" x="2566.79" y="875.95" width="333.11" height="940.79"/><rect class="cls-2" x="2008.14" y="702.9" width="299.58" height="1113.84"/><rect class="cls-2" x="2298.64" y="442.66" width="419.14" height="1374.09"/><rect class="cls-3" x="2049.78" y="786.18" width="62.46" height="93.69"/><rect class="cls-3" x="2145.2" y="786.18" width="62.46" height="93.69"/><rect class="cls-3" x="2240.62" y="786.18" width="62.46" height="93.69"/><rect class="cls-3" x="2049.78" y="926.71" width="62.46" height="93.69"/><rect class="cls-3" x="2145.2" y="926.71" width="62.46" height="93.69"/><rect class="cls-3" x="2240.62" y="926.71" width="62.46" height="93.69"/><rect class="cls-3" x="2049.78" y="1067.24" width="62.46" height="93.69"/><rect class="cls-3" x="2145.2" y="1067.24" width="62.46" height="93.69"/><rect class="cls-3" x="2240.62" y="1067.24" width="62.46" height="93.69"/><rect class="cls-3" x="2049.78" y="1207.77" width="62.46" height="93.69"/><rect class="cls-3" x="2145.2" y="1207.77" width="62.46" height="93.69"/><rect class="cls-3" x="2240.62" y="1207.77" width="62.46" height="93.69"/><rect class="cls-3" x="2049.78" y="1348.3" width="62.46" height="93.69"/><rect class="cls-3" x="2145.2" y="1348.3" width="62.46" height="93.69"/><rect class="cls-3" x="2240.62" y="1348.3" width="62.46" height="93.69"/><rect class="cls-3" x="2366.19" y="786.18" width="62.46" height="93.69"/><rect class="cls-3" x="2476.98" y="786.18" width="62.46" height="93.69"/><rect class="cls-3" x="2585.86" y="786.18" width="62.46" height="93.69"/><rect class="cls-3" x="2366.19" y="635.21" width="62.46" height="93.69"/><rect class="cls-3" x="2476.98" y="635.21" width="62.46" height="93.69"/><rect class="cls-3" x="2585.86" y="635.21" width="62.46" height="93.69"/><rect class="cls-3" x="2366.19" y="492.19" width="62.46" height="93.69"/><rect class="cls-3" x="2476.98" y="492.19" width="62.46" height="93.69"/><rect class="cls-3" x="2585.86" y="492.19" width="62.46" height="93.69"/><rect class="cls-3" x="2366.19" y="926.71" width="62.46" height="93.69"/><rect class="cls-3" x="2476.98" y="926.71" width="62.46" height="93.69"/><rect class="cls-3" x="2585.86" y="926.71" width="62.46" height="93.69"/><rect class="cls-3" x="2366.19" y="1067.24" width="62.46" height="93.69"/><rect class="cls-3" x="2476.98" y="1067.24" width="62.46" height="93.69"/><rect class="cls-3" x="2585.86" y="1067.24" width="62.46" height="93.69"/><rect class="cls-3" x="2366.19" y="1207.77" width="62.46" height="93.69"/><rect class="cls-3" x="2476.98" y="1207.77" width="62.46" height="93.69"/><rect class="cls-3" x="2585.86" y="1207.77" width="62.46" height="93.69"/><rect class="cls-3" x="2366.19" y="1348.3" width="62.46" height="93.69"/><rect class="cls-3" x="2476.98" y="1348.3" width="62.46" height="93.69"/><rect class="cls-3" x="2585.86" y="1348.3" width="62.46" height="93.69"/><rect class="cls-1" x="2826.19" y="806.37" width="73.72" height="69.58"/><rect class="cls-2" x="2366.19" y="367.29" width="284.04" height="75.36"/><rect class="cls-4" y="1804.11" width="2911.68" height="31.22" rx="15.61"/><path class="cls-5" d="M1673.42,418.5a124.46,124.46,0,0,1,186.26-102.26h0a62.62,62.62,0,0,1,123.44-9.84h0A105.39,105.39,0,0,1,2106,370.81a78.56,78.56,0,0,1,89.56,23.25c8,9.76.89,24.44-11.73,24.44Z"/><path class="cls-5" d="M1400.54,276.23c0,.68,0,1.36,0,2H1165.74A55.08,55.08,0,0,1,1235,241.12a86.48,86.48,0,0,1,165.52,35.11Z"/><path class="cls-5" d="M1017.22,135.32c0,.89,0,1.79-.06,2.68H612.06c0-.89-.06-1.79-.06-2.68a71.72,71.72,0,0,1,93.1-68.4A112.71,112.71,0,0,1,913,71.47a71.7,71.7,0,0,1,104.24,63.85Z"/><path class="cls-5" d="M2517.45,204.32c0,.89,0,1.79,0,2.68H2112.29c0-.89-.05-1.79-.05-2.68a71.71,71.71,0,0,1,93.09-68.4,112.71,112.71,0,0,1,207.89,4.55,71.69,71.69,0,0,1,104.23,63.85Z"/><path class="cls-6" d="M2973.78,1479.26a174.93,174.93,0,0,0-3.48-50.21c-6.09-28.15-19.64-62-56.93-93.51-78.87-66.7-335.57-152.92-553.68-150.12C2327.9,1167,2032.49,940,1901.88,866.56c-123.63-68.64-814.68-27.1-878.24-18.84-174.47,21.92-495.32,309-501,394.46-.3,4.14-.63,308.28,4.46,328.3s270.77,64.83,270.77,64.83,2067.28,56.58,2096.51,51.8a98.56,98.56,0,0,0,70.88-36.23C2979.83,1626.1,2973.78,1479.26,2973.78,1479.26ZM1060.55,1203.17S936,1174.9,935.75,1125.79,1170,886.58,1304.64,894.32c0,0,25,197.8,85.53,309.85C1315.08,1205.42,1060.55,1203.17,1060.55,1203.17Zm381.08,0c-65.59-97.25-99-314.23-99-314.23s360.45,2.57,430,8.18,508.54,328.57,508.54,328.57S1514,1205.44,1441.63,1203.17Z"/><path class="cls-7" d="M2973.47,1515.72s6,109.21-8.58,134A98.5,98.5,0,0,1,2894,1686c-29.24,4.77-2272.26,4.45-2312,0s-55.3-58.79-56.25-102c0-9.22-3.5,14.41-4.13-68.22Z"/><path class="cls-7" d="M2228.6,1586.05c.28-143.22,116.62-259.1,259.84-258.82s259.1,116.62,258.82,259.85a259.51,259.51,0,0,1-13.66,82.55l-438.26,20.66-60.07-46.08A309.85,309.85,0,0,1,2228.6,1586.05Z"/><circle class="cls-8" cx="2487.93" cy="1586.05" r="218.97" transform="translate(-392.81 2223.78) rotate(-45)"/><circle class="cls-9" cx="2487.93" cy="1586.05" r="156.99" transform="translate(-392.81 2223.78) rotate(-45)"/><circle class="cls-10" cx="2487.93" cy="1586.05" r="89.87" transform="translate(-63.76 104.76) rotate(-2.38)"/><path class="cls-7" d="M764.14,1586.05c0-143.31,116.17-259.49,259.49-259.49s259.49,116.18,259.49,259.49a238.31,238.31,0,0,1-12.71,80.09l-500.55-26.7A260.33,260.33,0,0,1,764.14,1586.05Z"/><path class="cls-8" d="M1023.74,1367.08c-120.93,0-219,97.93-219.07,218.87S902.6,1805,1023.53,1805s219-97.93,219.08-218.86S1144.68,1367.14,1023.74,1367.08Z"/><circle class="cls-9" cx="1023.64" cy="1586.05" r="156.99" transform="translate(-821.69 1188.37) rotate(-45)"/><path class="cls-10" d="M1023.68,1496.18a89.87,89.87,0,1,0,89.83,89.91A89.87,89.87,0,0,0,1023.68,1496.18Z"/><path class="cls-11" d="M2743,1324.77s170.4,10.77,195,88.89c13.29,27.32-138,10.38-138,10.38Z"/><path class="cls-7" d="M2281.18,1225.7,2175,1142.84s-119.1-21.71-124.64,65.85C2053.49,1293.26,2249.46,1247.4,2281.18,1225.7Z"/><path class="cls-7" d="M1658.52,1288.79H1499.31a17.28,17.28,0,0,1-17.28-17.28h0a17.28,17.28,0,0,1,17.28-17.28h159.21a17.27,17.27,0,0,1,17.28,17.28h0A17.28,17.28,0,0,1,1658.52,1288.79Z"/><path class="cls-12" d="M927.94,1809.52l-712,.31a140.11,140.11,0,0,1-140.2-140L75,339.41a140.11,140.11,0,0,1,140-140.2l712-.31a140.1,140.1,0,0,1,140.19,140l.76,1330.4A140.11,140.11,0,0,1,927.94,1809.52Z"/><path class="cls-9" d="M896.07,1768.53l-647.79.28c-70.4,0-127.51-57.9-127.55-129.42L120,371.53C120,300,177,242,247.41,242l647.79-.28c70.39,0,127.5,57.9,127.55,129.42l.7,1267.86C1023.5,1710.47,966.47,1768.49,896.07,1768.53Z"/><path class="cls-5" d="M753.39,1308.79,891,1222.31l28.58,78.39L791.2,1381.07l14,23.64,218-136.45,0-32.49-79.41,49.73-28.6-78.41,107.95-67.85-.08-157.75-13.72-22.61,13.69-19.19,0-48.08-30.69,43L874.88,876.35,975.34,735.48,1023,761.92l0-31.81-31.36-17.42,31.32-43.93,0-57.65L970.54,582l52.32-5.5V548.67L928,558.36,729.46,448.07,991.4,317.7l31.35,57.12v-3.73a129.83,129.83,0,0,0-63.46-111.93l5.15,9.38L861.75,319.66l-78.53-77.94-39.82,0,91.38,91.35-152,75.63-172.14-128,22-38.89-62.31,0-52.9,76.25-67.08-35L378,241.88l-33.67,0-37.73,56.17-49-56.13H247.41C218.26,242,194,253.86,194,253.86l50.18,57.73-123.5,46.32c-.46,4.47-.68,30-.68,30l143.5-53.8-.15-.41L273.21,345l-99.16,174.4L120,396.54l.08,137.67,19.88,45-19.83,34.88,0,92.59,77.12,117.38-13.92,17.65L120.3,863.69v29.69l79.91-28,137.4-174.17L392.14,715l-233,515-38.73-190.86.08,143.35L132.41,1242l-11.9,3.34,0,57.45,54-15.3,387,135.31,122.35-73.42L676.74,1376H735.6ZM956.46,978l59.9,99.85L895.48,1153,849,1025.67l83.72-59.43Zm-52-25.82-73.75,52.37-66.12-33.65,73.53-51.63ZM590.85,1059.26l-57.33-77.11L500.34,867.69,710.27,974.5Zm10.34,108.22L504.64,1236l45.22-137.23ZM808.68,904.67,735.9,956.31,489.72,831.05,463.5,733.36ZM464.14,574.77l2.17,4.3,119.78-59.64L710.18,588.3,601.52,740.69l-93.21-46.26Zm-10,335.86,27.6,96.54,2.8,4.17,32.4,43.35-141.54-40.64ZM738.77,989l66.28,33.73L647.1,1134.88l-39.8-53.51ZM849.54,863.78,626.85,753.26,734.77,602l216,119.89ZM929.29,591l82.22,45.68L967,699l-80.61-44.77ZM699.22,463.12l205.13,114-41.89,63.83-246-136.64ZM494.81,303.67l65.55,48.74-31,41.8-66-44.93Zm-47.34,68.54,87.47,59.53L582.65,369l72.17,53.67L446.3,526.42,409.61,427ZM339.75,298.89,401.59,341l-25.44,36.68-50.48-57.81Zm-47.1,68.45,50.41,58L232.21,585.07,196,569.34l-7.93-18.08ZM215.57,801,124.71,662.7l29.35-51.63,157.1,68.61Zm69.1-193.08,86-124.49,71.71,193.07Zm134.64,181,25.22,88.24L285.16,1086.42ZM214.84,1242.38l19.35-42.92,123.14-161.74,167.22,48.41-78.24,237.5Zm339.7,119.24-81.81-28.72L490,1280.64l127.93-90.84,69.59,93.12Zm180.29-108.75-71.09-95.61,161.64-114.79,45.82,125.6Z"/><polygon class="cls-13" points="232.21 585.08 343.06 425.34 292.65 367.35 188.07 551.26 196 569.34 232.21 585.08"/><polygon class="cls-13" points="1022.75 374.82 991.4 317.69 729.46 448.07 927.95 558.37 1022.85 548.67 1022.75 374.82"/><polygon class="cls-13" points="504.64 1236.02 549.86 1098.8 601.19 1167.48 504.64 1236.02"/><path class="cls-6" d="M532.21,457.16a86.1,86.1,0,0,0-86.09,86.1c0,47.55,86.09,194.94,86.09,194.94s86.1-147.39,86.1-194.94A86.1,86.1,0,0,0,532.21,457.16Zm0,130.16a41.57,41.57,0,1,1,41.57-41.57A41.56,41.56,0,0,1,532.21,587.32Z"/><path class="cls-6" d="M516.9,734a6.13,6.13,0,0,1-2.43-.51l-18.29-8.11a6,6,0,0,1,4.86-11l18.29,8.1A6,6,0,0,1,516.9,734Z"/><path class="cls-6" d="M476.26,716a6,6,0,0,1-2.42-.51l-22.35-9.91a6,6,0,1,1,4.86-11l22.35,9.91A6,6,0,0,1,476.26,716Z"/><path class="cls-6" d="M419.1,707.19a6,6,0,0,1-5.74-4.26l-5.82-19.13a6,6,0,0,1,8.18-7.23l18.28,8.1a6,6,0,1,1-4.86,11l-6.3-2.79,2,6.59a6,6,0,0,1-5.74,7.75Z"/><path class="cls-6" d="M684.93,1241.3a6,6,0,0,1-4.89-2.51L658.09,1208a6,6,0,1,1,9.77-7l21.95,30.76a6,6,0,0,1-4.88,9.48ZM641,1179.79a6,6,0,0,1-4.89-2.51l-21.94-30.76a6,6,0,1,1,9.76-7l21.95,30.75a6,6,0,0,1-1.4,8.37A5.91,5.91,0,0,1,641,1179.79Zm-43.89-61.51a6,6,0,0,1-4.89-2.52l-22-30.76a6,6,0,0,1,9.77-7L602,1108.79a6,6,0,0,1-4.88,9.49Zm-43.9-61.52a6,6,0,0,1-4.89-2.51l-22-30.76a6,6,0,1,1,9.77-7l22,30.76a6,6,0,0,1-4.88,9.48Zm-43.89-61.51a6,6,0,0,1-4.89-2.52l-4.71-6.59a6,6,0,0,1-.85-1.74L490.27,956a6,6,0,1,1,11.48-3.49L510.09,980l4.14,5.79a6,6,0,0,1-4.88,9.49ZM485,924.1a6,6,0,0,1-5.74-4.25l-11-36.16a6,6,0,0,1,11.48-3.48l11,36.15a6,6,0,0,1-4,7.48A5.83,5.83,0,0,1,485,924.1Zm-22-72.3a6,6,0,0,1-5.73-4.26l-11-36.15a6,6,0,1,1,11.48-3.49l11,36.15a6,6,0,0,1-4,7.49A5.89,5.89,0,0,1,463,851.8Zm-22-72.31a6,6,0,0,1-5.74-4.25l-11-36.15a6,6,0,1,1,11.48-3.49l11,36.15a6,6,0,0,1-4,7.48A5.89,5.89,0,0,1,441.07,779.49Z"/><path class="cls-6" d="M702.21,1300a6,6,0,0,1-3.49-10.89l11.4-8.12-8.13-11.4a6,6,0,0,1,9.77-7l11.61,16.28a6,6,0,0,1-1.4,8.37l-16.28,11.62A6,6,0,0,1,702.21,1300Z"/><path class="cls-6" d="M636.37,1346.89a6,6,0,0,1-3.49-10.88l32.92-23.47a6,6,0,1,1,7,9.77l-32.92,23.47A6,6,0,0,1,636.37,1346.89Z"/><path class="cls-6" d="M587.16,1382a6,6,0,0,1-3.48-10.88L600,1359.48a6,6,0,0,1,7,9.77l-16.29,11.61A6,6,0,0,1,587.16,1382Z"/><path class="cls-14" d="M1023.13,1367.69v304.66A96.16,96.16,0,0,1,927,1768.52l-710.21.32a96.17,96.17,0,0,1-96.23-96.12l-.18-305Z"/><rect class="cls-5" x="511.22" y="1449.86" width="414.53" height="61.47" rx="18.98"/><path class="cls-9" d="M430.67,1508c-.51-9.93-4.4-17.86-12.1-23.73a29.87,29.87,0,0,0-18.71-6c-12.82,0-28.77,10.34-29.59,29.92H286c-.36-9.89-4.32-18-12.38-24a28.7,28.7,0,0,0-18.2-5.86,29.95,29.95,0,0,0-29.6,29.79c-5.08-1.45-9.84-2.75-14.55-4.2a2.27,2.27,0,0,1-1.13-1.76c-.06-13.89-.14-27.79.09-41.69a11.54,11.54,0,0,1,2.56-6.07c7-9.34,16.52-15.79,26.51-21.5,11.27-6.45,23.19-11.29,36.2-12.93a92.91,92.91,0,0,1,11.06-.7c11.73-.09,23.48.37,35.19-.15a45.91,45.91,0,0,1,28.36,8.13c9.7,6.55,19,13.74,28.23,20.92a14.45,14.45,0,0,0,7.27,3c15.75,2.23,31.35,5.18,45.86,12a71.19,71.19,0,0,1,11.51,7.46c2.43,1.8,3.34,4.58,3.32,7.66q-.07,11.64,0,23.29c0,1.3-.16,2.16-1.67,2.56C440.09,1505.31,435.6,1506.65,430.67,1508Zm-191.82-57.2,57.92,2V1434C275.08,1431.61,256.15,1438.36,238.85,1450.84Zm72.56-17.23v19.63l52,1.82c.05-.24.09-.48.14-.72-3-2.32-5.84-4.82-9-6.92-5.31-3.55-10.78-6.85-16.19-10.26C330,1431.84,320.62,1434.16,311.41,1433.61Z"/><path class="cls-9" d="M255.89,1487.91a20.5,20.5,0,1,1-20.57,20.43A20.55,20.55,0,0,1,255.89,1487.91Z"/><path class="cls-9" d="M400.72,1487.91A20.5,20.5,0,1,1,380,1508.17,20.55,20.55,0,0,1,400.72,1487.91Z"/><rect class="cls-5" x="267.81" y="1576.19" width="630.62" height="68.08" rx="23.39"/><rect class="cls-5" x="267.81" y="1667.15" width="630.62" height="68.08" rx="23.39"/><polygon class="cls-13" points="500.34 867.7 533.52 982.15 590.85 1059.26 710.27 974.5 500.34 867.7"/><g id="c"><polygon id="v-2" class="cls-11" points="1260.67 676.96 1260.63 676.96 1226.42 677.09 1218.67 757.89 1258.61 778.98 1301.2 758.13 1294.32 677.09 1260.67 676.96"/><ellipse class="cls-11" cx="1245.33" cy="608.26" rx="107.03" ry="84.06" transform="matrix(0.13, -0.99, 0.99, 0.13, 478.4, 1762.66)"/><path class="cls-15" d="M1216.35,620.6c-8.46,11-19.13,24.45-19.13,24.45s3.1,12.79,19.41,14.54c-6.64-3.53-13-8.83-9.32-17.77S1216.35,620.6,1216.35,620.6Z"/><path class="cls-16" d="M1347.65,572.22c5-55.84-46.35-74.17-46.35-74.17s11.5-4,8.71-20.92a44.87,44.87,0,0,1-27.51,6.35c-63.83-6.32-104,4.18-97.66,29.19,2.26,8.91-39.15,13.47-20.71,72.54,3.95-7,7.5-33.16,19.91-38.92s5.07,14.64,33.26,11.47c28.45-3.21,47-15,67.69-3.78,16.57,10.19,37.3,78.17,36.35,82.81C1323.51,626.14,1345.45,596.75,1347.65,572.22Z"/><path class="cls-16" d="M1161.55,629.18s5.44,31.84,12.39,40.35c1.51-13.71,31.58-5.08,44.65-3.93,23.66,2.07,47.68-18.93,55.65,12.15,30.13,1.75,41.1-64.59,41.1-64.59,18.54,66.29-14.65,114.64-87.71,121.38C1179.5,739,1152.84,677.55,1161.55,629.18Z"/><path d="M1250.49,617.13a8.13,8.13,0,1,0-7.58-8.66A8.14,8.14,0,0,0,1250.49,617.13Z"/><path d="M1183.31,614.65a8.13,8.13,0,1,0-7.57-8.66A8.14,8.14,0,0,0,1183.31,614.65Z"/><path class="cls-16" d="M1169.8,597.67a4,4,0,0,0,3.6-1.74c2.3-3.35,4.95-5.28,7.87-5.72,5-.77,9.75,2.88,9.79,2.92a4,4,0,0,0,5-6.3c-.3-.24-7.4-5.87-16-4.61-5.25.76-9.76,3.84-13.4,9.14a4,4,0,0,0,1,5.61A4.09,4.09,0,0,0,1169.8,597.67Z"/><path class="cls-16" d="M1268.84,604.15a4,4,0,0,0,3.57-6.33c-4.84-7-10.46-11-16.69-11.86a19.69,19.69,0,0,0-14.17,3.64,4,4,0,0,0,5,6.33,11.63,11.63,0,0,1,8.1-2c3.9.6,7.64,3.45,11.13,8.46A4,4,0,0,0,1268.84,604.15Z"/><path class="cls-11" d="M1316.11,613.43c-10.07,9.58-11.88,24-4,32.27s22.36,7.16,32.43-2.42,11.89-24,4-32.27S1326.19,603.85,1316.11,613.43Z"/><path class="cls-15" d="M1325.21,641.77a2.94,2.94,0,0,1-1.15-.78c-4.75-5.16-5.77-11.39-2.73-16.66a14.66,14.66,0,0,1,15.42-7.07,3,3,0,1,1-1.32,5.94,8.66,8.66,0,0,0-8.83,4.17c-1.7,2.93-1,6.31,1.93,9.5a3,3,0,0,1-3.32,4.9Z"/><path class="cls-14" d="M1244.92,674.73c.34-2.1-.13-4.09-2.24-3.82A203.05,203.05,0,0,1,1220,672.6a200.39,200.39,0,0,1-22.67-1.33c-2.11-.23-2.61,1.77-2.18,3.85,1.78,8.61,11.53,18.21,24.49,18.1S1243.67,682.52,1244.92,674.73Z"/><path d="M1198.24,1734.13c-30.25,41.74-104.54,16.13-102.08,72.58,113-.72,159.92,0,159.92,0-.15-13-2.38-43.74-5-55.79Z"/><path d="M1367.26,1735.22c-30.25,41.74-104.53,16.13-102.08,72.58,113-.72,159.93,0,159.93,0-.15-13-2.39-43.74-5-55.78Z"/><path class="cls-17" d="M1145.94,1096.93s-18.34,267.51-10.89,327,33.84,135.72,30.85,332.44c36.83,9.22,90.18,0,90.18,0s7.91-222.43-31-321.78c15.83-96.51,66.63-317.55,66.63-317.55Z"/><path class="cls-18" d="M1215.65,1104.24s37,300.33,55.17,357.29,33.9,98.69,66.73,292.49c37.84,1.89,92.5.72,92.5.72s-4.94-240.1-63.89-296c-2-97.86,9.53-352.56,9.53-352.56Z"/><g id="v"><path id="h-5" class="cls-10" d="M1386.38,763.39s-64.32-22.52-85.77-12.19c-66.65,32.1-81.94,0-81.94,0-21.3,1.84-85.59,12.19-85.59,12.19,0,71.8-4.79,143.85-3.49,198.19.92,47.31-8.09,176.08-8.09,176.08s70.91,18.59,138,19.07c67.09-.43,135.38-18.32,135.38-18.32s-3.59-130.42-6.57-178.89C1389.28,905.19,1386.38,835,1386.38,763.39Z"/></g><g id="c-2" data-name="c"><path id="c-3" data-name="c" class="cls-19" d="M1018.74,870.11c26.55-63.35,105.34-103.64,114.34-106.72l18.27,81.33a476.42,476.42,0,0,0-65.32,46.6c4.66,22.64,3.88,44.85,17,73.49,0,0-11.38-15.71-25.43-6.42-13.65,9-38.76-9.4-38.76-9.4S998.46,918.49,1018.74,870.11Z"/></g><g id="c-4" data-name="c"><g id="c-5" data-name="c"><g id="c-6" data-name="c"><path id="c-7" data-name="c" class="cls-13" d="M1033.53,1030.19a6.15,6.15,0,0,1-1.38.28h-1.51a7.17,7.17,0,0,1-6.11-5l-70.78-228.2a7.51,7.51,0,0,1-.28-1.38,6.79,6.79,0,0,1,0-.9,5,5,0,0,1,0-.55c0-.16.06-.31.09-.47a7.17,7.17,0,0,1,4.92-5.7,7.52,7.52,0,0,1,1.35-.28,6.61,6.61,0,0,1,1.54,0h178.18l71.4,242.49H1033.41Z"/><path id="c-8" data-name="c" class="cls-20" d="M1137.92,788.26a7.19,7.19,0,0,1,9,4.73l70.34,227.64.16.53a7.19,7.19,0,0,1-4.71,9v0a7.18,7.18,0,0,1-9-4.73l-70.52-228.16A7.19,7.19,0,0,1,1137.92,788.26Z"/></g></g><path id="c-9" data-name="c" class="cls-11" d="M1003.3,933a7.46,7.46,0,0,0-2.13-.93,3.88,3.88,0,0,0,.23-.33c4.44-6.68,4.14-14.68-.66-17.86a7.7,7.7,0,0,0-2.56-1.07c1.25-5,.13-9.68-3.29-12a8,8,0,0,0-4.6-1.28c1.56-4.87.32-10-3.52-12.51C982,883.93,975,886,971.24,891.69s-3,12.91,1.83,16.09a9.07,9.07,0,0,0,4,1.43c-3.2,6.22-2.55,13,1.78,15.91a7.87,7.87,0,0,0,2.56,1.07c-1.24,4.95-.13,9.68,3.3,11.95a8,8,0,0,0,4.25,1.28c-1.59,4.26-.58,8.84,2.79,11.08,4,2.68,9.93,1,13.12-3.87S1007.35,935.72,1003.3,933Z"/><path class="cls-11" d="M1222.36,918.62l-16.24-9.41s-4.5-23-30.58-23.6l7.29,23.6s-12.84,10-43.29-7.1c-29.77-6.68-17,15-26.92,16.58-14.55,2.29,10.62,30.9,40.34,35.28,38.45,5.66,43-2.21,43-2.21l21.76,7.6Z"/><path id="c-10" data-name="c" class="cls-19" d="M1388.48,945.41c-54.29-3.79-162.71-32.79-162.71-32.79-14.83,22.73-10.73,52.93-10.73,52.93,84.31,73.91,211.2,97.81,250.13,80,35.55-16.24,10.3-232.67-78.94-282.23Z"/></g><path class="cls-20" d="M1101.61,822.91c3.07,7.7,11,11.79,17.66,9.12s9.59-11.07,6.52-18.77-11-11.79-17.66-9.13S1098.53,815.21,1101.61,822.91Z"/><path class="cls-20" d="M1078.86,820.29c1.84,4.6,6.55,7,10.54,5.45s5.72-6.61,3.89-11.21-6.56-7-10.54-5.44S1077,815.7,1078.86,820.29Z"/></g></g></g></svg>