<?xml version="1.0" encoding="UTF-8"?>
<!DOCTYPE svg PUBLIC "-//W3C//DTD SVG 1.1//EN" "http://www.w3.org/Graphics/SVG/1.1/DTD/svg11.dtd">
<!-- Creator: CorelDRAW 2021 (64-Bit) -->
<svg xmlns="http://www.w3.org/2000/svg" xml:space="preserve" width="137.616mm" height="32.4775mm" version="1.1" style="shape-rendering:geometricPrecision; text-rendering:geometricPrecision; image-rendering:optimizeQuality; fill-rule:evenodd; clip-rule:evenodd"
viewBox="0 0 13858.54 3270.63"
 xmlns:xlink="http://www.w3.org/1999/xlink"
 xmlns:xodm="http://www.corel.com/coreldraw/odm/2003">
 <defs>
  <style type="text/css">
   <![CDATA[
    .str0 {stroke:#49B9EA;stroke-width:17.05;stroke-linecap:round;stroke-linejoin:round;stroke-miterlimit:22.9256;stroke-dasharray:34.098589 85.246471}
    .fil3 {fill:none}
    .fil0 {fill:#B8E4F5}
    .fil2 {fill:url(#id0)}
    .fil1 {fill:url(#id1)}
   ]]>
  </style>
  <linearGradient id="id0" gradientUnits="userSpaceOnUse" x1="6876.14" y1="789.41" x2="6876.14" y2="133.7">
   <stop offset="0" style="stop-opacity:1; stop-color:#3BB6E8"/>
   <stop offset="1" style="stop-opacity:1; stop-color:#81D4F7"/>
  </linearGradient>
  <linearGradient id="id1" gradientUnits="userSpaceOnUse" xlink:href="#id0" x1="12200.76" y1="1838.07" x2="12200.76" y2="1182.33">
  </linearGradient>
 </defs>
 <g id="Layer_x0020_1">
  <metadata id="CorelCorpID_0Corel-Layer"/>
  <path class="fil0" d="M-0 2411.25l0 848.27 193.51 0 0 -530.5c2.57,2.94 -0.03,-0.92 3.54,4.76 1.33,2.13 2.74,4.85 3.91,7.13 3.13,6.18 4.19,8.59 7.29,14.8l199.3 405.93c14.94,36.37 7.35,26.03 123.22,26.03 9.9,0 27.47,-43.87 32.28,-53.43 9.98,-19.96 18.93,-37.9 28.56,-57.09l115.18 -233.01c10.01,-20 18.96,-37.91 28.56,-57.09l30.41 -58.04 0 530.5 185.22 0c6.38,0 8.3,-1.91 8.3,-8.29l0 -839.98c0,-11.64 -12.48,-8.59 -24.76,-8.37l-235.09 0.08c-2.42,10.37 -8.02,18.89 -12.9,28.54l-164.97 349.05c-5.41,11.26 -8.16,19.27 -13.78,30.42 -6.77,13.38 -21.71,49.99 -29.51,58.94 -2.42,-10.37 -8.05,-18.88 -12.89,-28.53l-193.29 -411.97c-3.54,-8.62 -8.15,-26.46 -17.74,-26.46l-246.05 0c-6.37,0 -8.29,1.91 -8.29,8.29z"/>
  <path class="fil0" d="M5415.68 3259.52l190.76 0 0 -533.28 353.46 464.57c6.77,8.46 47.6,59.22 50.16,68.71l193.5 0 0 -856.55 -190.76 0 0 547.09 -53.71 -67.91c-18.16,-24.23 -34.33,-44.75 -52.52,-69.06 -9.4,-12.56 -17.6,-22.49 -26.45,-34.33 -8.76,-11.7 -16.53,-22.57 -26.06,-34.76 -18.53,-23.72 -34.41,-44.92 -52.96,-68.66l-196.95 -259.02c-5.27,-7.18 -7.82,-13.34 -19.85,-13.34l-168.64 0 0 856.55z"/>
  <path class="fil0" d="M2930.38 2820.18l-146.52 0 0 -251.43c78.83,0 252.07,-12.93 287.48,44.25 25.92,41.86 29.39,132.87 -17.17,176.18 -23.98,22.34 -77.66,31 -123.8,31zm-340.02 -408.93l0 839.98c0,6.37 1.91,8.29 8.29,8.29l185.22 0 0 -270.78 127.19 0c6.93,0 18.74,19.77 25.45,29.81l118.81 171.38c8.62,12.7 43.68,59.11 46.47,69.6l237.76 0c-2.19,-8.21 -70.39,-101.92 -79.04,-114.4l-108.97 -153.61c-9.09,-12.86 -18.77,-25.48 -27.61,-38.67 47.49,-11.07 94.33,-53.69 120.03,-92.81 60,-91.31 59.19,-282.06 -15.64,-362.45 -6.88,-7.4 -13.36,-13.62 -20.71,-20.77 -65.55,-63.65 -218.85,-73.85 -310.37,-73.85l-298.57 0c-6.37,0 -8.29,1.91 -8.29,8.29z"/>
  <path class="fil0" d="M7248.57 3088.22l-129.94 0 0 -516.7c108.45,0 221.52,-6.58 300.98,52.85 49.48,37.01 83.91,100.64 86.01,184.82 0.31,12.37 3.75,16.81 2.17,29.48 -4.98,39.87 1.55,36.29 -13.14,89.31 -30.52,110.18 -134.25,160.23 -246.07,160.23zm-323.44 -676.97l0 848.27 306.86 0c187.27,0 356.93,-60.84 433.26,-238.4 78.64,-182.86 39.6,-458.66 -165.09,-560.15 -35.96,-17.82 -42.76,-19.57 -81.21,-32.1 -54.57,-17.74 -132.46,-25.9 -203.54,-25.9l-281.99 0c-6.37,0 -8.29,1.91 -8.29,8.29z"/>
  <path class="fil0" d="M8705.46 2662.69c2.8,11.94 6.99,19.21 11.45,30 3.97,9.57 9.04,21.02 13.36,30.86l77.47 182.31 -210.09 0 52.9 -121.19c8.05,-19.64 18.64,-41.65 26.87,-61.58l23.43 -53.94c3.19,-5.65 1.99,-3.46 4.6,-6.46zm-464.43 596.83l204.57 0 80.16 -185.14 356.63 0c3.88,16.64 30.22,71.98 38.32,91.58 6.63,16.06 12.97,30.89 19.83,46.51 5.4,12.37 16.21,33.99 19.26,47.05l204.57 0c-0.83,-10.09 -151.33,-356.37 -161.26,-377.62 -8.49,-18.1 -16.39,-36.4 -23.56,-53.82 -52.49,-127.13 -118.26,-274.83 -174.49,-403.07 -3.64,-8.26 -5.66,-22.04 -16.67,-22.04l-171.38 0c-9.65,0 -19.88,31.36 -26.9,47.75l-163.47 378.17c-43.39,105.12 -94.06,216.35 -139.4,322.11l-35.13 80.93c-3.16,7.05 -9.43,20.44 -11.09,27.59z"/>
  <path class="fil0" d="M12241.29 2662.69c9.38,6.88 22.3,46.08 27.56,58.12 9.9,22.54 76.61,174.43 77.47,185.04l-207.32 0c3.43,-14.83 67.59,-157.04 77.03,-180 5.27,-12.89 24.32,-51.93 25.26,-63.16zm-458.91 596.83l204.57 0c3.49,-15.03 48.58,-116.84 57.98,-138.22l19.44 -46.92 356.6 0 39.66 93c7.32,16.45 12.73,30 20.24,46.08 7.56,16.13 12.48,31.3 20.29,46.05l204.57 0c-3.94,-7.45 -7.54,-17.11 -10.98,-24.95l-175.01 -405.32c-31,-72.54 -61.34,-141.66 -92.45,-214.3l-46.83 -107.93c-8.35,-18.74 -15.94,-35.6 -23.46,-53.92 -5.87,-14.34 -17.57,-50.14 -27.25,-50.14l-174.16 0c-8.12,0 -7.04,3.25 -14.6,21.33l-313.43 725.65c-7.65,17.16 -44.14,97.29 -45.17,109.58z"/>
  <path class="fil0" d="M4345.83 2662.69c0.89,10.64 42.78,103.33 50.16,121.19l39.06 90.82c4.63,10.79 8.4,21.46 13.06,31.16l-210.12 0c4.38,-8.26 8.54,-18.99 12.65,-28.83 9.4,-22.41 86.17,-207.7 95.19,-214.33zm-464.43 596.83l204.57 0c3.27,-6.82 6.54,-15.33 9.87,-23.29l29.78 -69.71c13.73,-30.83 25.56,-63.88 40.51,-92.13l356.63 0c1,11.95 49.61,119.51 58.01,138.22 3.4,7.54 6.4,14.86 9.92,23.24 3.78,9 7.57,15.47 9.49,23.68l204.57 0c-3.49,-14.97 -15.88,-38.73 -21.73,-52.9l-81.74 -189.07c-4.08,-9.79 -7.41,-17.33 -11.7,-26.98l-250.02 -579.03c-2.36,-4.35 -3.1,-8.57 -10.79,-8.57l-171.41 0c-11.09,0 -20.6,31.31 -27.23,47.36 -7.59,18.36 -14.77,35.94 -23.45,53.96l-46.44 108.3c-57.09,139.25 -126.72,288.65 -186.02,430.22l-58.45 135c-8.79,21.07 -30.63,65.77 -34.35,81.71z"/>
  <path class="fil0" d="M10585.34 2635.07c0,128.25 52.07,197.59 175.88,241.43 72.56,25.7 99.4,27.55 158.3,46.24 47.54,15.12 110.91,31.28 110.91,93.64 0,90.84 -118.32,90.28 -188.6,69.71 -42.98,-12.59 -101.68,-47.05 -139.19,-76.41 -14.06,-10.98 -25.95,-22.66 -39.87,-31.97l-28.37 35.19c-10.23,11.48 -18.8,22.68 -28.5,35.08 -18.94,24.26 -39.85,45.81 -56.49,70.64 4.71,3.14 42.45,38.52 75.2,60.23 27.64,18.36 56.42,35.57 89.06,49.15 40.53,16.86 116.23,40.1 164.64,39.88 15.03,-0.08 20.16,1.19 30.97,2.39 13.95,1.55 19.66,-2.2 32.61,-2.53 149.46,-3.69 287.59,-95.38 287.59,-259.64 0,-70.64 -22.33,-127.57 -60.69,-165.92 -86.26,-86.23 -216.3,-93.78 -305.83,-128.13 -33.3,-12.78 -78.56,-28.39 -78.56,-76.22 0,-72.4 60.03,-82.88 116.1,-82.88 60.83,0 122.66,24.87 170.54,53.35l45.09 29.53c15.86,-23.68 32.39,-45.58 48.66,-70.18 8.49,-12.83 15.42,-21.62 23.77,-34.27 8.6,-12.95 17.16,-22.93 24.34,-36.46 -20.71,-13.87 -33.49,-28.07 -63.57,-44.2 -142.85,-76.73 -337.08,-104.75 -472,-4.77 -27.17,20.13 -48.19,42.51 -65.25,72.92 -15.41,27.54 -26.73,72.06 -26.73,114.21z"/>
  <path class="fil0" d="M13181.22 2411.25l0 160.27 240.5 0 0 679.71c0,6.37 1.94,8.29 8.29,8.29l185.25 0 0 -687.99 243.28 0 0 -160.27c0,-6.37 -1.94,-8.29 -8.32,-8.29l-660.71 0c-6.37,0 -8.29,1.91 -8.29,8.29z"/>
  <path class="fil0" d="M1678.05 2411.25l0 848.27 193.53 0 0 -848.27c0,-6.37 -1.93,-8.29 -8.29,-8.29l-176.93 0c-6.37,0 -8.32,1.91 -8.32,8.29z"/>
  <path class="fil1" d="M12198.3 1644.06c-120.02,0 -217.31,-97.29 -217.31,-217.31 0,-120.02 97.29,-217.31 217.31,-217.31 120.01,0 217.3,97.29 217.3,217.31 0,120.02 -97.29,217.31 -217.3,217.31zm2.45 -461.72c-140.47,0 -254.35,113.88 -254.35,254.34 0,10.64 0.65,21.11 1.99,31.38 22.76,174.34 252.36,370.02 252.36,370.02 0,0 230.46,-193.58 252.04,-367.52 1.47,-11.09 2.31,-22.36 2.31,-33.88 0,-140.46 -113.88,-254.34 -254.35,-254.34z"/>
  <path class="fil2" d="M6873.69 595.39c-120.01,0 -217.29,-97.29 -217.29,-217.3 0,-120.01 97.28,-217.3 217.29,-217.3 120.01,0 217.3,97.29 217.3,217.3 0,120.01 -97.29,217.3 -217.3,217.3zm2.46 -461.69c-140.47,0 -254.34,113.87 -254.34,254.34 0,10.62 0.65,21.08 1.99,31.35 22.76,174.37 252.35,370.03 252.35,370.03 0,0 230.45,-193.57 252.02,-367.5 1.48,-11.1 2.32,-22.39 2.32,-33.88 0,-140.47 -113.87,-254.34 -254.34,-254.34z"/>
  <path class="fil3 str0" d="M12195.45 1833.9c-870.47,-702.58 -1153.31,-1437.42 -2472.05,-1724.45 -844.41,-183.8 -1966.73,-198.48 -2847,670.4"/>
 </g>
</svg>
